<svg width="184" height="35" viewBox="0 0 184 35" fill="none" xmlns="http://www.w3.org/2000/svg">
<path d="M125.022 17.4946C126.157 17.4946 127.078 16.5741 127.078 15.4387C127.078 14.3033 126.157 13.3828 125.022 13.3828C123.886 13.3828 122.966 14.3033 122.966 15.4387C122.966 16.5741 123.886 17.4946 125.022 17.4946Z" stroke="#03303D" stroke-width="0.973446" stroke-miterlimit="10"/>
<path d="M115.013 24.321C113.539 24.321 112.337 23.1185 112.337 21.6444V16.3689C112.337 14.8949 113.539 13.6924 115.013 13.6924C116.487 13.6924 117.69 14.8949 117.69 16.3689V21.6832C117.69 23.1185 116.487 24.321 115.013 24.321Z" stroke="#03303D" stroke-width="0.973446" stroke-miterlimit="10"/>
<path d="M166.178 7.99219H172.307L170.329 9.9705L169.242 12.6858L168.001 9.9705L166.178 7.99219Z" stroke="#03303D" stroke-width="0.973446" stroke-miterlimit="10" stroke-linejoin="round"/>
<path d="M172.267 7.91406L175.021 12.4525C174.246 13.3835 172.888 13.5387 171.918 12.8017L169.901 11.3276" stroke="#03303D" stroke-width="0.973446" stroke-miterlimit="10"/>
<path d="M166.217 7.91406L163.463 12.4525C164.238 13.3835 165.557 13.4999 166.566 12.8017L168.583 11.3276" stroke="#03303D" stroke-width="0.973446" stroke-miterlimit="10"/>
<path d="M173.547 13.5002V13.5777C173.664 14.1596 173.703 14.7802 173.703 15.4009C173.703 18.1938 173.198 20.8316 172.229 23.5081L171.724 24.9046L169.203 23.1202L166.953 24.9046L166.449 23.896C164.936 20.8703 164.315 17.9223 164.781 14.5475L165.013 13.3838" stroke="#03303D" stroke-width="0.973446" stroke-miterlimit="10"/>
<path d="M174.983 12.4141L176.224 15.2458C177.427 17.9223 176.923 21.0643 174.983 23.2754" stroke="#03303D" stroke-width="0.973446" stroke-miterlimit="10"/>
<path d="M163.54 12.4141L162.298 15.2458C161.096 17.9223 161.6 21.0643 163.54 23.2754" stroke="#03303D" stroke-width="0.973446" stroke-miterlimit="10"/>
<path d="M167.807 24.0117L169.242 26.1064L170.522 24.0117" stroke="#03303D" stroke-width="0.973446" stroke-miterlimit="10"/>
<path d="M28.2 12.0248C27.3854 8.88277 24.2433 7.05962 21.1401 7.83542C18.3472 8.53365 16.4464 11.5593 16.7568 14.4298C16.8731 15.3608 17.1059 16.253 17.4938 17.1451C18.5411 19.7441 20.1315 22.0327 22.0711 24.0498C22.1486 24.1662 22.265 24.2438 22.3814 24.3214C22.4978 24.3989 22.6529 24.3989 22.7305 24.3214C22.8857 24.205 23.002 24.0498 23.1572 23.9335C24.4373 22.6146 25.5622 21.1406 26.4932 19.5114C27.3078 18.1149 27.9672 16.6409 28.2387 15.0504C28.3939 14.0419 28.4327 13.0333 28.2 12.0248Z" stroke="#03303D" stroke-width="0.973446" stroke-miterlimit="10"/>
<path d="M20.5195 13.3435C20.5583 12.2574 21.4505 11.3652 22.5366 11.3652C23.6616 11.3652 24.5537 12.2574 24.5537 13.3823C24.5537 14.5073 23.6616 15.3994 22.5366 15.3994C22.4978 15.3994 22.4978 15.3994 22.4591 15.3994" stroke="#03303D" stroke-width="0.973446" stroke-miterlimit="10"/>
<path d="M41.9714 16.0205V23.3131" stroke="#03303D" stroke-width="0.973446" stroke-miterlimit="10"/>
<path d="M40.8076 12.335L42.0877 18.1923L43.1738 12.335" stroke="#03303D" stroke-width="0.973446" stroke-miterlimit="10"/>
<path d="M40.4966 8.80462V11.9467C40.4966 12.1794 40.6905 12.3733 40.9233 12.3733H43.2507C43.4834 12.3733 43.6774 12.1794 43.6774 11.9467V8.80462C43.6774 8.57188 43.4834 8.37793 43.2507 8.37793H40.9233C40.6905 8.37793 40.4966 8.57188 40.4966 8.80462Z" stroke="#03303D" stroke-width="0.973446" stroke-miterlimit="10"/>
<path d="M40.4967 8.72753L32.2344 5.66309V6.55527L35.8419 11.5592" stroke="#03303D" stroke-width="0.973446" stroke-miterlimit="10"/>
<path d="M34.4072 15.361L40.4585 11.5596" stroke="#03303D" stroke-width="0.973446" stroke-miterlimit="10"/>
<path d="M43.832 8.72753L52.0944 5.66309V6.55527L48.5257 11.5592" stroke="#03303D" stroke-width="0.973446" stroke-miterlimit="10"/>
<path d="M49.9229 15.361L43.8716 11.5596" stroke="#03303D" stroke-width="0.973446" stroke-miterlimit="10"/>
<path d="M42.7085 8.26235V7.09863H41.3896V8.26235" stroke="#03303D" stroke-width="0.973446" stroke-miterlimit="10"/>
<path d="M6.16724 20.248L8.80499 22.9246L11.5591 20.248" stroke="#03303D" stroke-width="0.973446" stroke-miterlimit="10"/>
<path d="M8.88257 18.4639V22.9248" stroke="#03303D" stroke-width="0.973446" stroke-miterlimit="10"/>
<path d="M6.16724 12.8779L8.80499 15.5545L11.5591 12.8779" stroke="#03303D" stroke-width="0.973446" stroke-miterlimit="10"/>
<path d="M8.88257 11.1328V15.5549" stroke="#03303D" stroke-width="0.973446" stroke-miterlimit="10"/>
<path d="M147.597 17.4551C147.558 17.4551 147.558 17.4551 147.52 17.4551C143.33 17.4551 139.917 20.8686 139.917 25.058C139.917 20.8686 136.503 17.4551 132.314 17.4551C132.275 17.4551 132.275 17.4551 132.236 17.4551" stroke="#03303D" stroke-width="1.07481" stroke-miterlimit="10"/>
<path d="M159.622 9.27051H159.583C157.062 9.27051 155.006 11.3264 155.006 13.8478C155.006 11.3264 152.95 9.27051 150.429 9.27051H150.39" stroke="#03303D" stroke-width="1.07481" stroke-miterlimit="10"/>
<path d="M60.0857 16.0986C60.0857 16.0986 61.7537 16.3314 62.3743 17.6503" stroke="#03303D" stroke-width="0.973446" stroke-miterlimit="10"/>
<path d="M66.0594 16.0986C66.0594 16.0986 64.3914 16.3314 63.7708 17.6503" stroke="#03303D" stroke-width="0.973446" stroke-miterlimit="10"/>
<path d="M63.1515 18.659C63.811 18.659 64.4316 18.8917 64.8971 19.2796C64.8971 19.2408 64.8971 19.2021 64.8971 19.1633C64.8971 18.1547 64.0825 17.3789 63.1127 17.3789C62.143 17.3789 61.3284 18.1935 61.3284 19.1633C61.3284 19.2408 61.3284 19.2796 61.3284 19.3572C61.7939 18.9305 62.4533 18.659 63.1515 18.659Z" stroke="#03303D" stroke-width="0.973446" stroke-miterlimit="10"/>
<path d="M65.3619 23.0803C65.6722 22.576 65.8661 22.033 65.8661 21.4123C65.8661 19.8995 64.6249 18.6582 63.112 18.6582C61.5992 18.6582 60.3579 19.8995 60.3579 21.4123C60.3579 21.9942 60.5519 22.576 60.8622 23.0803C60.3579 23.7785 60.0088 24.7095 60.0088 25.7569C60.0088 27.8903 61.3665 29.248 63.0732 29.248C64.78 29.248 66.1377 27.8903 66.1377 25.7569C66.2153 24.7095 65.9049 23.7785 65.3619 23.0803Z" stroke="#03303D" stroke-width="0.973446" stroke-miterlimit="10"/>
<path d="M60.4355 21.4128C60.4355 21.0249 60.5131 20.637 60.6682 20.2879L54.4618 18.3872C54.3066 18.3484 54.1514 18.3096 53.9963 18.3096H53.9575C53.1817 18.3096 52.561 18.9302 52.561 19.706C52.561 20.2879 52.9101 20.7534 53.3756 20.9861C53.6472 21.1025 53.8023 21.374 53.8023 21.6843C53.8023 22.6541 54.5393 23.4687 55.4703 23.6239C55.9746 23.7014 56.4789 23.6627 56.9444 23.5075C57.4486 23.3523 57.9529 23.1972 58.4572 23.042C59.0002 22.8868 59.5433 22.6929 60.0864 22.5377C60.1252 22.5377 60.3579 22.4601 60.5519 22.4214C60.4743 22.111 60.4355 21.7619 60.4355 21.4128Z" stroke="#03303D" stroke-width="0.973446" stroke-miterlimit="10"/>
<path d="M72.2667 18.3486C72.0728 18.3486 71.9176 18.3486 71.7624 18.4262L65.6335 20.3269C65.7887 20.6761 65.8663 21.064 65.8663 21.4519C65.8663 21.801 65.7887 22.1501 65.6723 22.4604C65.8663 22.4992 66.0602 22.5768 66.0602 22.5768C66.6033 22.732 67.1464 22.9259 67.6894 23.0811C68.1937 23.2362 68.698 23.3914 69.2023 23.5466C69.6678 23.7017 70.172 23.7405 70.6763 23.6629C71.6461 23.5078 72.3443 22.6932 72.3443 21.7234C72.3443 21.4131 72.4995 21.1803 72.771 21.0252C73.2365 20.7924 73.5856 20.3269 73.5856 19.7451C73.702 18.9693 73.0425 18.3486 72.2667 18.3486Z" stroke="#03303D" stroke-width="0.973446" stroke-miterlimit="10"/>
<path d="M60.4353 20.5596H65.9048" stroke="#03303D" stroke-width="0.973446" stroke-miterlimit="10"/>
<path d="M60.4353 22.8486H65.9048" stroke="#03303D" stroke-width="0.973446" stroke-miterlimit="10"/>
<path d="M60.4353 25.1367H65.9048" stroke="#03303D" stroke-width="0.973446" stroke-miterlimit="10"/>
<path d="M92.9021 1.93945C92.9021 1.93945 92.9021 6.55552 92.9021 12.1413" stroke="#03303D" stroke-width="0.934617" stroke-miterlimit="10"/>
<path d="M92.9021 22.2266C92.9021 27.6572 92.9021 32.0793 92.9021 32.0793" stroke="#03303D" stroke-width="0.934617" stroke-miterlimit="10"/>
<path d="M85.3774 3.95703C85.3774 3.95703 87.6661 7.95245 90.4978 12.8013" stroke="#03303D" stroke-width="0.934617" stroke-miterlimit="10"/>
<path d="M95.5791 21.6445C98.2556 26.2994 100.428 30.0621 100.428 30.0621" stroke="#03303D" stroke-width="0.934617" stroke-miterlimit="10"/>
<path d="M79.8303 9.46484C79.8303 9.46484 83.6706 11.6759 88.403 14.3912" stroke="#03303D" stroke-width="0.934617" stroke-miterlimit="10"/>
<path d="M97.0144 19.3955C101.902 22.2272 105.975 24.5546 105.975 24.5546" stroke="#03303D" stroke-width="0.934617" stroke-miterlimit="10"/>
<path d="M77.8132 17.0293C77.8132 17.0293 82.3129 17.0293 87.86 17.0293" stroke="#03303D" stroke-width="0.934617" stroke-miterlimit="10"/>
<path d="M98.1006 17.0293C103.531 17.0293 107.953 17.0293 107.953 17.0293" stroke="#03303D" stroke-width="0.934617" stroke-miterlimit="10"/>
<path d="M79.8303 24.554C79.8303 24.554 83.6706 22.343 88.4418 19.5889" stroke="#03303D" stroke-width="0.934617" stroke-miterlimit="10"/>
<path d="M97.3247 14.4688C102.096 11.7147 105.975 9.46484 105.975 9.46484" stroke="#03303D" stroke-width="0.934617" stroke-miterlimit="10"/>
<path d="M85.4551 30.1785C85.4551 30.1785 87.7437 26.2219 90.5366 21.373" stroke="#03303D" stroke-width="0.934617" stroke-miterlimit="10"/>
<path d="M95.6567 12.5289C98.3721 7.874 100.544 4.11133 100.544 4.11133" stroke="#03303D" stroke-width="0.934617" stroke-miterlimit="10"/>
<path d="M92.9033 22.1884C95.7526 22.1884 98.0624 19.8786 98.0624 17.0292C98.0624 14.1799 95.7526 11.8701 92.9033 11.8701C90.054 11.8701 87.7441 14.1799 87.7441 17.0292C87.7441 19.8786 90.054 22.1884 92.9033 22.1884Z" stroke="#03303D" stroke-width="0.934617" stroke-miterlimit="10"/>
</svg>
