<svg width="163" height="44" viewBox="0 0 163 44" fill="none" xmlns="http://www.w3.org/2000/svg">
<path d="M65.6919 36.774L69.5799 33.48L73.4139 36.774L77.2479 33.48L81.0819 36.774L84.9699 33.48L88.8039 36.774L92.6379 33.48L96.4719 36.774L100.36 33.48L104.194 36.774L108.028 33.48L111.916 36.774L115.75 33.48L119.584 36.774L123.418 33.48L127.306 36.774L131.14 33.48L134.974 36.774L138.862 33.48L142.696 36.774L146.53 33.48L150.364 36.774L154.252 33.48L158.086 36.774" stroke="#03303D" stroke-width="1.35513" stroke-miterlimit="10"/>
<path d="M52.8401 28.6739L56.7281 25.3799L60.5621 28.6739L64.3961 25.3799L68.2301 28.6739L72.1181 25.3799L75.9521 28.6739L79.7861 25.3799L83.6201 28.6739L87.5081 25.3799L91.3421 28.6739L95.1761 25.3799L99.0641 28.6739L102.898 25.3799L106.732 28.6739L110.566 25.3799L114.454 28.6739L118.288 25.3799L122.122 28.6739L126.01 25.3799L129.844 28.6739" stroke="#03303D" stroke-width="1.35513" stroke-miterlimit="10"/>
<path d="M55.6487 11.8448L55.683 11.879C57.0194 10.5426 58.904 9.72021 60.9601 9.72021C63.0161 9.72021 64.8665 10.5426 66.2372 11.879C66.2714 11.8448 66.3057 11.8105 66.34 11.7762" stroke="#03303D" stroke-width="1.1016" stroke-miterlimit="10"/>
<path d="M66.1002 12.016C64.7638 13.2839 62.9476 14.0377 60.9944 14.0377C58.9384 14.0377 57.088 13.2153 55.7173 11.8789" stroke="#03303D" stroke-width="1.1016" stroke-miterlimit="10"/>
<path d="M60.96 14.0379C63.8744 14.0379 66.2371 13.0713 66.2371 11.879C66.2371 10.6867 63.8744 9.72021 60.96 9.72021C58.0455 9.72021 55.6829 10.6867 55.6829 11.879C55.6829 13.0713 58.0455 14.0379 60.96 14.0379Z" stroke="#03303D" stroke-width="1.1016" stroke-miterlimit="10"/>
<path d="M50.6797 9.72021C52.5644 9.82302 54.2777 10.6112 55.5456 11.879C55.5799 11.8448 55.6141 11.8105 55.6484 11.7762" stroke="#03303D" stroke-width="1.1016" stroke-miterlimit="10"/>
<path d="M55.4085 12.0161C54.1406 13.1812 52.4958 13.9351 50.6797 14.0379" stroke="#03303D" stroke-width="1.1016" stroke-miterlimit="10"/>
<path d="M102.952 17.3129L102.917 17.2787C101.581 18.6151 99.6963 19.4375 97.6403 19.4375C95.5843 19.4375 93.7338 18.6151 92.3632 17.2787C92.3289 17.3129 92.2946 17.3472 92.2604 17.3815" stroke="#03303D" stroke-width="1.1016" stroke-miterlimit="10"/>
<path d="M92.5002 17.1417C93.8366 15.8739 95.6527 15.12 97.6059 15.12C99.662 15.12 101.512 15.9424 102.883 17.2788" stroke="#03303D" stroke-width="1.1016" stroke-miterlimit="10"/>
<path d="M97.6404 15.1199C94.7259 15.1199 92.3633 16.0864 92.3633 17.2787C92.3633 18.471 94.7259 19.4375 97.6404 19.4375C100.555 19.4375 102.917 18.471 102.917 17.2787C102.917 16.0864 100.555 15.1199 97.6404 15.1199Z" stroke="#03303D" stroke-width="1.1016" stroke-miterlimit="10"/>
<path d="M107.92 19.4375C106.035 19.3347 104.322 18.5466 103.054 17.2787C103.02 17.3129 102.986 17.3472 102.951 17.3815" stroke="#03303D" stroke-width="1.1016" stroke-miterlimit="10"/>
<path d="M103.191 17.1416C104.459 15.9765 106.104 15.2227 107.92 15.1198" stroke="#03303D" stroke-width="1.1016" stroke-miterlimit="10"/>
<path d="M10.6118 13.8239C10.6118 17.0099 12.0158 19.8179 14.2838 21.7079C16.4978 19.8179 17.9558 16.9559 17.9558 13.8239C17.9558 10.6379 16.5518 7.82994 14.2838 5.93994C12.0158 7.82994 10.6118 10.6379 10.6118 13.8239Z" stroke="#03303D" stroke-width="1.35513" stroke-miterlimit="10"/>
<path d="M14.23 21.7622V39.9602" stroke="#03303D" stroke-width="1.35513" stroke-miterlimit="10"/>
<path d="M20.6562 23.2741C20.6562 26.4601 22.0603 29.2681 24.3283 31.1581C26.5423 29.2681 28.0003 26.4061 28.0003 23.2741C28.0003 20.0881 26.5963 17.2801 24.3283 15.3901C22.0603 17.2261 20.6562 20.0881 20.6562 23.2741Z" stroke="#03303D" stroke-width="1.35513" stroke-miterlimit="10"/>
<path d="M24.2744 30.8882V39.9602" stroke="#03303D" stroke-width="1.35513" stroke-miterlimit="10"/>
<path d="M1 28.1882C1 31.3742 2.404 34.1822 4.672 36.0722C6.886 34.1822 8.34399 31.3202 8.34399 28.1882C8.34399 25.0022 6.94 22.1942 4.672 20.3042C2.404 22.1942 1 25.0562 1 28.1882Z" stroke="#03303D" stroke-width="1.35513" stroke-miterlimit="10"/>
<path d="M4.67188 35.1543V39.9603" stroke="#03303D" stroke-width="1.35513" stroke-miterlimit="10"/>
<path d="M149.106 9.75066V2.7002C144.962 5.5142 144.22 10.3073 144.22 10.3073C144.22 10.3073 144.22 16.7393 144.22 20.5119C144.22 24.3154 149.106 28.0262 149.106 28.0262V21.0685" stroke="#03303D" stroke-width="1.10356" stroke-miterlimit="10"/>
<path d="M144.343 20.5117C144.343 20.5117 153.342 23.5113 159.372 15.3476C153.156 7.06019 144.25 10.2762 144.25 10.2762" stroke="#03303D" stroke-width="1.10356" stroke-miterlimit="10"/>
<path d="M144.25 12.5337C144.25 12.5337 140.942 12.008 138.932 14.6983C138.622 15.1003 138.622 15.6569 138.932 16.0589C140.911 18.7492 144.25 18.2235 144.25 18.2235" stroke="#03303D" stroke-width="1.10356" stroke-miterlimit="10"/>
<path d="M153.743 19.9553C153.743 19.9553 156.341 22.2745 161.103 22.1199L157.423 17.5742" stroke="#03303D" stroke-width="1.10356" stroke-miterlimit="10"/>
<path d="M153.743 10.7091C153.743 10.7091 156.341 8.38989 161.103 8.54451L157.423 13.0902" stroke="#03303D" stroke-width="1.10356" stroke-miterlimit="10"/>
<path d="M144.25 15.3784H159.372" stroke="#03303D" stroke-width="1.10356" stroke-miterlimit="10"/>
<path d="M40.6274 40.0963V35.1155L44.9813 31.5976V28.4629L43.4836 27" stroke="#03303D" stroke-width="1.1016" stroke-miterlimit="10"/>
<path d="M46.6184 27L45.051 28.5674" stroke="#03303D" stroke-width="1.1016" stroke-miterlimit="10"/>
<path d="M47.8721 30.9009L44.9812 31.5975" stroke="#03303D" stroke-width="1.1016" stroke-miterlimit="10"/>
<path d="M40.7666 36.5435L45.1553 35.4985L47.8721 36.9266" stroke="#03303D" stroke-width="1.1016" stroke-miterlimit="10"/>
<path d="M46.444 33.6177L45.1553 35.4985" stroke="#03303D" stroke-width="1.1016" stroke-miterlimit="10"/>
<path d="M34.2881 27L35.96 28.4629V31.5976L40.279 35.1155V40.0963" stroke="#03303D" stroke-width="1.1016" stroke-miterlimit="10"/>
<path d="M33.0342 30.9009L35.96 31.5975" stroke="#03303D" stroke-width="1.1016" stroke-miterlimit="10"/>
<path d="M40.1397 36.5438L35.7859 35.3247L32.8601 35.8472" stroke="#03303D" stroke-width="1.1016" stroke-miterlimit="10"/>
<path d="M40.4534 27.8359V31.319L42.5084 33.4437" stroke="#03303D" stroke-width="1.1016" stroke-miterlimit="10"/>
<path d="M38.1196 29.1245L40.4533 31.3188L42.8566 29.1245" stroke="#03303D" stroke-width="1.1016" stroke-miterlimit="10"/>
<path d="M87.7778 13.878C88.6129 13.878 89.2899 13.2011 89.2899 12.366C89.2899 11.531 88.6129 10.854 87.7778 10.854C86.9428 10.854 86.2659 11.531 86.2659 12.366C86.2659 13.2011 86.9428 13.878 87.7778 13.878Z" stroke="#03303D" stroke-width="1.0854" stroke-miterlimit="10"/>
<path d="M92.0979 7.93801C93.2312 7.93801 94.1499 7.0193 94.1499 5.88601C94.1499 4.75272 93.2312 3.83398 92.0979 3.83398C90.9646 3.83398 90.0459 4.75272 90.0459 5.88601C90.0459 7.0193 90.9646 7.93801 92.0979 7.93801Z" stroke="#03303D" stroke-width="1.0854" stroke-miterlimit="10"/>
</svg>
